<?xml version="1.0" encoding="utf-8"?>
<!-- Generator: Adobe Illustrator 21.0.0, SVG Export Plug-In . SVG Version: 6.00 Build 0)  -->
<svg version="1.1" id="Layer_1" xmlns="http://www.w3.org/2000/svg" xmlns:xlink="http://www.w3.org/1999/xlink" x="0px" y="0px"
	 viewBox="0 0 128 35" style="enable-background:new 0 0 128 35;" xml:space="preserve">
<style type="text/css">
	.st0{fill:#F9F9F9;}
	.st1{fill:#FACF9C;}
	.st2{fill:#F6A647;}
	.st3{fill:#F28400;}
</style>
<g>
	<path class="st0" d="M13.5,10.6l-7.3,24h8.5l7.3-24H13.5z"/>
	<polygon class="st0" points="61.7,21.2 67.5,34.6 59.5,34.6 54.6,24 51.3,34.6 42.8,34.6 50,11 58.5,11 56.4,18 64.8,11 74.1,11 	
		"/>
	<path class="st0" d="M100,13c-0.2-0.6-0.5-1-0.9-1.4S98.2,11,97.6,11H77.7l-1.8,5.8h15.7l-0.9,3.1h-12c-0.6,0-1.2,0.2-1.8,0.5
		c-0.6,0.4-1.2,0.8-1.8,1.4c-0.6,0.6-1.1,1.2-1.5,1.9s-0.8,1.3-1,2l-0.9,3.1c-0.2,0.6-0.3,1.3-0.3,2c0,0.7,0.1,1.3,0.3,1.9
		c0.2,0.6,0.5,1,0.9,1.4c0.4,0.4,0.9,0.5,1.5,0.5h20.5l5.4-17.8c0.2-0.6,0.3-1.3,0.3-2C100.3,14.2,100.2,13.6,100,13z M88,28.8h-7.7
		l0.9-3.1h7.7L88,28.8z"/>
	<g>
		<path class="st0" d="M45.9,11l-1.8,5.8h-8.4l-5.4,17.8h-8.5l5.4-17.8c0.7-3,3.1-5.5,5.6-5.8c0.1,0,0.3,0,0.4,0H45.9z"/>
	</g>
	<path class="st0" d="M123.2,11l-1.8,5.8H113l-5.4,17.8h-8.5l5.4-17.8c0.7-3,3.1-5.5,5.6-5.8c0.1,0,0.3,0,0.4,0H123.2z"/>
	<polygon class="st1" points="126.9,0.7 124.7,7.9 107.5,7.9 109.7,0.7 	"/>
	<polygon class="st2" points="109.7,0.7 107.5,7.9 77.8,7.9 80,0.7 	"/>
	<polygon class="st3" points="80,0.7 77.8,7.9 38.3,7.9 40.5,0.7 	"/>
	<polygon class="st0" points="2.4,0.7 0.2,7.9 35.2,7.9 37.3,0.7 	"/>
</g>
</svg>
