<svg xmlns="http://www.w3.org/2000/svg" width="24.001" height="24" viewBox="0 0 24.001 24"><defs><style>.a,.b{fill:none;}.b{stroke:#90ca28;stroke-linecap:round;stroke-linejoin:round;stroke-width:1.5px;}</style></defs><rect class="a" width="24" height="24" transform="translate(0.001 0)"/><g transform="translate(1.999 6.158)"><rect class="b" width="19.994" height="11.666" rx="2"/><path class="b" d="M6,6.16c0,2.209-1.789,4.489-4,4.489H2" transform="translate(-2 -6.16)"/><path class="b" d="M2,13.27H2c2.209,0,4,2.359,4,4.569" transform="translate(-2 -6.162)"/><path class="b" d="M18,17.839c0-2.209,1.789-4.569,4-4.569h0" transform="translate(-2.005 -6.162)"/><path class="b" d="M22,10.649h0c-2.209,0-4-2.279-4-4.489v.49" transform="translate(-2.005 -6.16)"/><circle class="b" cx="2.526" cy="2.526" r="2.526" transform="translate(8.107 3.947)"/></g></svg>