<svg xmlns="http://www.w3.org/2000/svg" width="18.396" height="22.507" viewBox="0 0 18.396 22.507"><defs><style>.a{fill:#ccc;stroke:#ccc;stroke-width:0.5px;}</style></defs><g transform="translate(0.264 0.252)"><g transform="translate(-0.003 -0.002)"><path class="a" d="M222.865,154.7a.467.467,0,0,0-.467.467V164a.467.467,0,1,0,.934,0V155.17A.467.467,0,0,0,222.865,154.7Zm0,0" transform="translate(-210.87 -145.411)"/><path class="a" d="M104.865,154.7a.467.467,0,0,0-.467.467V164a.467.467,0,0,0,.934,0V155.17A.467.467,0,0,0,104.865,154.7Zm0,0" transform="translate(-98.986 -145.411)"/><path class="a" d="M1.46,6.55v12.7a2.843,2.843,0,0,0,.756,1.961,2.538,2.538,0,0,0,1.841.8h9.751a2.537,2.537,0,0,0,1.841-.8,2.843,2.843,0,0,0,.756-1.961V6.55A1.969,1.969,0,0,0,15.9,2.679H13.263V2.034A2.024,2.024,0,0,0,11.222,0H6.645A2.024,2.024,0,0,0,4.6,2.034v.644H1.966A1.969,1.969,0,0,0,1.46,6.55ZM13.809,20.975H4.058a1.632,1.632,0,0,1-1.567-1.727V6.6H15.376V19.248a1.632,1.632,0,0,1-1.567,1.727ZM5.635,2.034a.993.993,0,0,1,1.01-1h4.576a.993.993,0,0,1,1.01,1v.644h-6.6ZM1.966,3.709H15.9a.928.928,0,0,1,0,1.855H1.966a.928.928,0,1,1,0-1.855Zm0,0" transform="translate(0.003 0.002)"/><path class="a" d="M163.865,154.7a.467.467,0,0,0-.467.467V164a.467.467,0,0,0,.934,0V155.17A.467.467,0,0,0,163.865,154.7Zm0,0" transform="translate(-154.928 -145.411)"/></g></g></svg>