<svg xmlns="http://www.w3.org/2000/svg" width="24" height="24" viewBox="0 0 24 24"><defs><style>.a,.b{fill:none;}.b{stroke:#b89f2b;stroke-linecap:round;stroke-linejoin:round;stroke-width:1.5px;}</style></defs><rect class="a" width="24" height="24"/><g transform="translate(1.96 4.215)"><path class="b" d="M4.79,18H4a2,2,0,0,1-2-2V6.49a2,2,0,0,1,2-2h9.78a2,2,0,0,1,2,2V13.4" transform="translate(-2 -4.49)"/><path class="b" d="M15.75,8.19h2.78a1.18,1.18,0,0,1,.93.45l2.26,3a1.81,1.81,0,0,1,.36,1.07v5a.2.2,0,0,1-.2.2H18.83" transform="translate(-2 -4.49)"/><circle class="b" cx="2.24" cy="2.24" r="2.24" transform="translate(12.27 11.09)"/><circle class="b" cx="2.24" cy="2.24" r="2.24" transform="translate(2.78 11.09)"/><line class="b" x1="5.13" transform="translate(7.15 13.46)"/></g></svg>